<svg width="294" height="308" viewBox="0 0 294 308" fill="none" xmlns="http://www.w3.org/2000/svg">
<path d="M132.968 8.61545C139.039 -2.46842 154.961 -2.46841 161.032 8.61547L174.635 33.4469C178.702 40.8709 187.848 43.8425 195.502 40.2269L221.102 28.1334C232.53 22.7353 245.41 32.0935 243.807 44.6295L240.217 72.7142C239.143 81.1107 244.796 88.8905 253.113 90.4643L280.933 95.7281C293.35 98.0777 298.27 113.22 289.605 122.419L270.193 143.03C264.389 149.192 264.389 158.808 270.193 164.97L289.605 185.581C298.27 194.78 293.35 209.922 280.933 212.272L253.113 217.536C244.796 219.109 239.143 226.889 240.217 235.286L243.807 263.371C245.41 275.907 232.53 285.265 221.102 279.867L195.502 267.773C187.848 264.158 178.702 267.129 174.635 274.553L161.032 299.385C154.961 310.468 139.039 310.468 132.968 299.385L119.365 274.553C115.298 267.129 106.152 264.158 98.4981 267.773L72.8976 279.867C61.4704 285.265 48.59 275.907 50.1927 263.371L53.7832 235.286C54.8567 226.889 49.2043 219.109 40.887 217.536L13.0673 212.272C0.649637 209.922 -4.27024 194.78 4.39484 185.581L23.8074 164.97C29.6113 158.808 29.6113 149.192 23.8074 143.03L4.39483 122.419C-4.27025 113.22 0.649652 98.0777 13.0673 95.7281L40.887 90.4643C49.2044 88.8905 54.8567 81.1107 53.7832 72.7142L50.1926 44.6295C48.59 32.0935 61.4704 22.7353 72.8976 28.1334L98.4982 40.2269C106.152 43.8425 115.298 40.8709 119.365 33.4469L132.968 8.61545Z" fill="#FFC107"/>
</svg>
